<svg width="434.95" height="51.5" viewBox="-0.7500000462215746 -16.25010325315921 440.95000008649845 57.50023449233893" xmlns="http://www.w3.org/2000/svg"><g id="svgGroup" stroke-linecap="round" fill-rule="evenodd" font-size="9pt" stroke="#e6077a" stroke-width="2" fill="#e87400" style="stroke:#e6077a;stroke-width:2;fill:#e87400"><path d="M 229.15 5.25 L 226.15 5.25 L 226.15 3.25 L 239.65 3.25 L 239.65 5.25 L 236.65 5.25 L 236.65 20.5 L 247.3 3.25 L 255.25 3.25 L 255.25 5.25 L 252.5 5.25 L 238 21.5 L 241.25 21.5 A 12.781 12.781 0 0 1 244.06 21.785 Q 245.738 22.164 246.901 23.048 A 6.262 6.262 0 0 1 249.1 26.35 L 251.2 33.35 A 6.829 6.829 0 0 0 251.413 33.994 Q 251.664 34.637 251.992 34.993 A 1.727 1.727 0 0 0 252.1 35.1 A 1.575 1.575 0 0 0 252.592 35.395 Q 253.117 35.6 253.95 35.6 A 2.959 2.959 0 0 0 254.942 35.413 Q 255.878 35.079 257 34.15 L 257.9 35.35 A 15.77 15.77 0 0 1 254.83 37.574 A 11.206 11.206 0 0 1 249.4 39 A 10.799 10.799 0 0 1 247.925 38.906 Q 247.17 38.801 246.544 38.582 A 5.1 5.1 0 0 1 245.7 38.2 A 3.842 3.842 0 0 1 244.349 36.874 Q 244.027 36.362 243.8 35.709 A 7.451 7.451 0 0 1 243.7 35.4 L 240.75 25.7 A 5.093 5.093 0 0 0 240.456 24.908 Q 240.084 24.128 239.5 23.75 Q 238.785 23.287 237.256 23.143 A 13.802 13.802 0 0 0 236.65 23.1 L 236.65 36.25 L 239.65 36.25 L 239.65 38.25 L 226.15 38.25 L 226.15 36.25 L 229.15 36.25 L 229.15 5.25 Z M 150.5 3.05 L 150.5 15.9 A 11.473 11.473 0 0 1 152.201 14.372 A 8.658 8.658 0 0 1 154.275 13.25 A 10.704 10.704 0 0 1 156.063 12.772 Q 157.545 12.5 159.425 12.5 A 8.07 8.07 0 0 1 161.816 12.839 A 6.483 6.483 0 0 1 164.525 14.475 A 6.56 6.56 0 0 1 166.297 17.818 A 9.664 9.664 0 0 1 166.5 19.85 L 166.5 32.7 A 4.528 4.528 0 0 0 166.576 33.556 Q 166.722 34.315 167.15 34.825 A 2.045 2.045 0 0 0 168.152 35.467 Q 168.495 35.571 168.911 35.594 A 4.385 4.385 0 0 0 169.15 35.6 A 3.135 3.135 0 0 0 170.216 35.397 Q 171.155 35.058 172.25 34.15 L 173.15 35.35 Q 169.15 39 165.15 39 A 7.313 7.313 0 0 1 162.532 38.569 Q 159 37.22 159 31.65 L 159 18.8 A 4.057 4.057 0 0 0 158.888 17.817 A 2.742 2.742 0 0 0 158.05 16.4 A 3.141 3.141 0 0 0 156.808 15.731 Q 156.34 15.595 155.782 15.561 A 6.303 6.303 0 0 0 155.4 15.55 Q 153.7 15.55 152.1 16.95 Q 150.5 18.35 150.5 20.6 L 150.5 38.25 L 143 38.25 L 143 2.4 Q 140.25 3.1 138.8 4.85 L 137.45 3.3 A 9.793 9.793 0 0 1 139.748 1.555 A 12.349 12.349 0 0 1 141.125 0.9 A 12.343 12.343 0 0 1 143.955 0.116 A 10.745 10.745 0 0 1 145.525 0 A 8.881 8.881 0 0 1 147.047 0.123 Q 147.894 0.271 148.584 0.595 A 4.908 4.908 0 0 1 149.1 0.875 Q 150.113 1.508 150.393 2.364 A 2.192 2.192 0 0 1 150.5 3.05 Z M 4.7 27.6 L 4.7 31.8 A 3.805 3.805 0 0 0 5.66 34.32 A 5.972 5.972 0 0 0 6.6 35.2 Q 8.5 36.65 11.5 36.65 A 10.064 10.064 0 0 0 13.415 36.479 Q 14.548 36.259 15.438 35.757 A 5.503 5.503 0 0 0 16.25 35.2 Q 18 33.75 18 31.35 A 4.8 4.8 0 0 0 16.574 27.948 Q 15.933 27.275 15.002 26.684 A 11.825 11.825 0 0 0 14.35 26.3 L 6.95 22.35 A 14.567 14.567 0 0 1 3.609 19.94 A 10.033 10.033 0 0 1 0.55 12.5 A 9.52 9.52 0 0 1 3.434 5.566 A 11.999 11.999 0 0 1 3.55 5.45 A 9.45 9.45 0 0 1 7.279 3.241 Q 8.749 2.755 10.538 2.588 A 21.122 21.122 0 0 1 12.5 2.5 Q 16.5 2.5 20.1 4.1 A 11.901 11.901 0 0 1 21.503 4.829 Q 23.037 5.773 23.5 6.897 A 2.61 2.61 0 0 1 23.7 7.9 A 3.206 3.206 0 0 1 23.609 8.632 Q 23.528 8.976 23.376 9.353 A 6.961 6.961 0 0 1 23.15 9.85 L 20.75 14.45 L 19 13.9 L 19 9.7 A 3.946 3.946 0 0 0 17.646 6.625 A 5.293 5.293 0 0 0 17.025 6.15 A 7.84 7.84 0 0 0 13.798 4.953 A 10.233 10.233 0 0 0 12.325 4.85 A 7.438 7.438 0 0 0 10.674 5.022 Q 9.5 5.29 8.656 5.972 A 4.495 4.495 0 0 0 8.15 6.45 A 5.617 5.617 0 0 0 7.02 8.274 A 5.216 5.216 0 0 0 6.7 10.1 Q 6.7 13.718 9.581 15.662 A 8.792 8.792 0 0 0 10.4 16.15 L 16.75 19.5 A 18.912 18.912 0 0 1 20.09 21.688 Q 21.969 23.254 22.945 25.119 A 9.305 9.305 0 0 1 24 29.5 A 9.916 9.916 0 0 1 23.564 32.521 A 7.636 7.636 0 0 1 20.475 36.6 Q 17.095 38.902 11.99 38.996 A 23.787 23.787 0 0 1 11.55 39 Q 7.5 39 3.75 37.4 A 12.59 12.59 0 0 1 2.289 36.671 Q 0.78 35.78 0.265 34.728 A 2.538 2.538 0 0 1 0 33.6 A 3.206 3.206 0 0 1 0.091 32.868 Q 0.172 32.524 0.324 32.147 A 6.961 6.961 0 0 1 0.55 31.65 L 2.95 27.05 L 4.7 27.6 Z M 39.95 15.55 L 39.95 32.7 A 4.057 4.057 0 0 0 40.062 33.683 A 2.742 2.742 0 0 0 40.9 35.1 A 3.141 3.141 0 0 0 42.142 35.77 Q 42.61 35.905 43.168 35.939 A 6.303 6.303 0 0 0 43.55 35.95 Q 45.25 35.95 46.85 34.55 Q 48.45 33.15 48.45 30.9 L 48.45 13.25 L 55.95 13.25 L 55.95 32.7 A 4.528 4.528 0 0 0 56.026 33.556 Q 56.172 34.315 56.6 34.825 A 2.045 2.045 0 0 0 57.602 35.467 Q 57.945 35.571 58.361 35.594 A 4.385 4.385 0 0 0 58.6 35.6 A 3.135 3.135 0 0 0 59.666 35.397 Q 60.605 35.058 61.7 34.15 L 62.6 35.35 Q 58.6 39 54.45 39 Q 50.582 39 49.147 35.786 A 7.465 7.465 0 0 1 48.95 35.3 Q 47.15 37.193 45.243 38.041 A 8.572 8.572 0 0 1 44.925 38.175 A 10.394 10.394 0 0 1 43.059 38.707 Q 41.546 39 39.625 39 A 8.558 8.558 0 0 1 37.296 38.699 A 6.475 6.475 0 0 1 34.425 37.025 A 6.56 6.56 0 0 1 32.653 33.682 A 9.664 9.664 0 0 1 32.45 31.65 L 32.45 14.9 Q 29.7 15.6 28.25 17.35 L 26.9 15.8 A 9.793 9.793 0 0 1 29.198 14.055 A 12.349 12.349 0 0 1 30.575 13.4 A 12.343 12.343 0 0 1 33.405 12.616 A 10.745 10.745 0 0 1 34.975 12.5 A 8.881 8.881 0 0 1 36.497 12.623 Q 37.344 12.771 38.034 13.095 A 4.908 4.908 0 0 1 38.55 13.375 Q 39.563 14.008 39.843 14.864 A 2.192 2.192 0 0 1 39.95 15.55 Z M 322.1 19.85 L 322.1 32.7 A 4.528 4.528 0 0 0 322.176 33.556 Q 322.322 34.315 322.75 34.825 A 2.045 2.045 0 0 0 323.752 35.467 Q 324.095 35.571 324.511 35.594 A 4.385 4.385 0 0 0 324.75 35.6 A 3.135 3.135 0 0 0 325.816 35.397 Q 326.755 35.058 327.85 34.15 L 328.75 35.35 Q 324.75 39 320.75 39 A 7.313 7.313 0 0 1 318.132 38.569 Q 314.6 37.22 314.6 31.65 L 314.6 18.8 A 4.057 4.057 0 0 0 314.488 17.817 A 2.742 2.742 0 0 0 313.65 16.4 A 3.164 3.164 0 0 0 312.362 15.716 Q 311.879 15.582 311.303 15.556 A 6.251 6.251 0 0 0 311.025 15.55 Q 309.403 15.55 307.828 16.816 A 8.186 8.186 0 0 0 307.725 16.9 Q 306.1 18.25 306.1 20.4 L 306.1 38.25 L 298.6 38.25 L 298.6 15.25 Q 296.35 15.25 294.6 16 L 293.9 14.15 A 11.728 11.728 0 0 1 297.658 13.282 A 13.849 13.849 0 0 1 298.6 13.25 Q 302.7 13.25 306 15.75 Q 307.9 13.95 309.9 13.225 A 10.675 10.675 0 0 1 311.634 12.769 Q 313.121 12.5 315.025 12.5 A 8.07 8.07 0 0 1 317.416 12.839 A 6.483 6.483 0 0 1 320.125 14.475 A 6.56 6.56 0 0 1 321.897 17.818 A 9.664 9.664 0 0 1 322.1 19.85 Z M 357.45 19.85 L 357.45 32.7 A 4.528 4.528 0 0 0 357.526 33.556 Q 357.672 34.315 358.1 34.825 A 2.045 2.045 0 0 0 359.102 35.467 Q 359.445 35.571 359.861 35.594 A 4.385 4.385 0 0 0 360.1 35.6 A 3.135 3.135 0 0 0 361.166 35.397 Q 362.105 35.058 363.2 34.15 L 364.1 35.35 Q 360.1 39 356.1 39 A 7.313 7.313 0 0 1 353.482 38.569 Q 349.95 37.22 349.95 31.65 L 349.95 18.8 A 4.057 4.057 0 0 0 349.838 17.817 A 2.742 2.742 0 0 0 349 16.4 A 3.164 3.164 0 0 0 347.712 15.716 Q 347.229 15.582 346.653 15.556 A 6.251 6.251 0 0 0 346.375 15.55 Q 344.753 15.55 343.178 16.816 A 8.186 8.186 0 0 0 343.075 16.9 Q 341.45 18.25 341.45 20.4 L 341.45 38.25 L 333.95 38.25 L 333.95 15.25 Q 331.7 15.25 329.95 16 L 329.25 14.15 A 11.728 11.728 0 0 1 333.008 13.282 A 13.849 13.849 0 0 1 333.95 13.25 Q 338.05 13.25 341.35 15.75 Q 343.25 13.95 345.25 13.225 A 10.675 10.675 0 0 1 346.984 12.769 Q 348.471 12.5 350.375 12.5 A 8.07 8.07 0 0 1 352.766 12.839 A 6.483 6.483 0 0 1 355.475 14.475 A 6.56 6.56 0 0 1 357.247 17.818 A 9.664 9.664 0 0 1 357.45 19.85 Z M 428.3 19.85 L 428.3 32.7 A 4.528 4.528 0 0 0 428.376 33.556 Q 428.522 34.315 428.95 34.825 A 2.045 2.045 0 0 0 429.952 35.467 Q 430.295 35.571 430.711 35.594 A 4.385 4.385 0 0 0 430.95 35.6 A 3.135 3.135 0 0 0 432.016 35.397 Q 432.955 35.058 434.05 34.15 L 434.95 35.35 Q 430.95 39 426.95 39 A 7.313 7.313 0 0 1 424.332 38.569 Q 420.8 37.22 420.8 31.65 L 420.8 18.8 A 4.057 4.057 0 0 0 420.688 17.817 A 2.742 2.742 0 0 0 419.85 16.4 A 3.164 3.164 0 0 0 418.562 15.716 Q 418.079 15.582 417.503 15.556 A 6.251 6.251 0 0 0 417.225 15.55 Q 415.603 15.55 414.028 16.816 A 8.186 8.186 0 0 0 413.925 16.9 Q 412.3 18.25 412.3 20.4 L 412.3 38.25 L 404.8 38.25 L 404.8 15.25 Q 402.55 15.25 400.8 16 L 400.1 14.15 A 11.728 11.728 0 0 1 403.858 13.282 A 13.849 13.849 0 0 1 404.8 13.25 Q 408.9 13.25 412.2 15.75 Q 414.1 13.95 416.1 13.225 A 10.675 10.675 0 0 1 417.834 12.769 Q 419.321 12.5 421.225 12.5 A 8.07 8.07 0 0 1 423.616 12.839 A 6.483 6.483 0 0 1 426.325 14.475 A 6.56 6.56 0 0 1 428.097 17.818 A 9.664 9.664 0 0 1 428.3 19.85 Z M 76.1 15.55 L 76.1 42.6 A 11.325 11.325 0 0 1 75.757 45.461 A 8.333 8.333 0 0 1 73.85 49.025 A 6.784 6.784 0 0 1 71.136 50.802 Q 70.021 51.216 68.632 51.385 A 16.892 16.892 0 0 1 66.6 51.5 Q 64.15 51.5 61.925 50.6 A 11.69 11.69 0 0 1 59.78 49.475 A 9.45 9.45 0 0 1 58.25 48.2 L 59.35 46.65 Q 61.5 48.5 64.4 48.5 A 4.5 4.5 0 0 0 66.311 48.123 Q 68.221 47.237 68.537 44.263 A 11.962 11.962 0 0 0 68.6 43 L 68.6 14.9 Q 65.85 15.6 64.4 17.35 L 63.05 15.8 A 9.793 9.793 0 0 1 65.348 14.055 A 12.349 12.349 0 0 1 66.725 13.4 A 12.343 12.343 0 0 1 69.555 12.616 A 10.745 10.745 0 0 1 71.125 12.5 A 8.881 8.881 0 0 1 72.647 12.623 Q 73.494 12.771 74.184 13.095 A 4.908 4.908 0 0 1 74.7 13.375 Q 75.713 14.008 75.993 14.864 A 2.192 2.192 0 0 1 76.1 15.55 Z M 103.1 13.25 L 110.6 13.25 L 110.6 32.7 A 4.528 4.528 0 0 0 110.676 33.556 Q 110.822 34.315 111.25 34.825 A 2.045 2.045 0 0 0 112.252 35.467 Q 112.595 35.571 113.011 35.594 A 4.385 4.385 0 0 0 113.25 35.6 A 3.135 3.135 0 0 0 114.316 35.397 Q 115.255 35.058 116.35 34.15 L 117.25 35.35 Q 113.25 39 109.25 39 A 7.582 7.582 0 0 1 106.984 38.686 Q 104.598 37.94 103.666 35.422 A 8.133 8.133 0 0 1 103.4 34.55 A 9.567 9.567 0 0 1 101.16 37.218 Q 98.946 39 95.75 39 A 14.137 14.137 0 0 1 92.197 38.58 A 9.564 9.564 0 0 1 87 35.275 Q 84 31.55 84 25.775 A 16.998 16.998 0 0 1 84.532 21.417 A 12.851 12.851 0 0 1 87.225 16.25 A 10.529 10.529 0 0 1 93.673 12.706 A 15.449 15.449 0 0 1 96.25 12.5 A 8.86 8.86 0 0 1 99.385 13.031 Q 101.628 13.873 103.1 16.05 L 103.1 13.25 Z M 194.5 13.25 L 202 13.25 L 202 32.7 A 4.528 4.528 0 0 0 202.076 33.556 Q 202.222 34.315 202.65 34.825 A 2.045 2.045 0 0 0 203.652 35.467 Q 203.995 35.571 204.411 35.594 A 4.385 4.385 0 0 0 204.65 35.6 A 3.135 3.135 0 0 0 205.716 35.397 Q 206.655 35.058 207.75 34.15 L 208.65 35.35 Q 204.65 39 200.65 39 A 7.582 7.582 0 0 1 198.384 38.686 Q 195.998 37.94 195.066 35.422 A 8.133 8.133 0 0 1 194.8 34.55 A 9.567 9.567 0 0 1 192.56 37.218 Q 190.346 39 187.15 39 A 14.137 14.137 0 0 1 183.597 38.58 A 9.564 9.564 0 0 1 178.4 35.275 Q 175.4 31.55 175.4 25.775 A 16.998 16.998 0 0 1 175.932 21.417 A 12.851 12.851 0 0 1 178.625 16.25 A 10.529 10.529 0 0 1 185.073 12.706 A 15.449 15.449 0 0 1 187.65 12.5 A 8.86 8.86 0 0 1 190.785 13.031 Q 193.028 13.873 194.5 16.05 L 194.5 13.25 Z M 279.25 13.25 L 286.75 13.25 L 286.75 32.7 A 4.528 4.528 0 0 0 286.826 33.556 Q 286.972 34.315 287.4 34.825 A 2.045 2.045 0 0 0 288.402 35.467 Q 288.745 35.571 289.161 35.594 A 4.385 4.385 0 0 0 289.4 35.6 A 3.135 3.135 0 0 0 290.466 35.397 Q 291.405 35.058 292.5 34.15 L 293.4 35.35 Q 289.4 39 285.4 39 A 7.582 7.582 0 0 1 283.134 38.686 Q 280.748 37.94 279.816 35.422 A 8.133 8.133 0 0 1 279.55 34.55 A 9.567 9.567 0 0 1 277.31 37.218 Q 275.096 39 271.9 39 A 14.137 14.137 0 0 1 268.347 38.58 A 9.564 9.564 0 0 1 263.15 35.275 Q 260.15 31.55 260.15 25.775 A 16.998 16.998 0 0 1 260.682 21.417 A 12.851 12.851 0 0 1 263.375 16.25 A 10.529 10.529 0 0 1 269.823 12.706 A 15.449 15.449 0 0 1 272.4 12.5 A 8.86 8.86 0 0 1 275.535 13.031 Q 277.778 13.873 279.25 16.05 L 279.25 13.25 Z M 385.45 13.25 L 392.95 13.25 L 392.95 32.7 A 4.528 4.528 0 0 0 393.026 33.556 Q 393.172 34.315 393.6 34.825 A 2.045 2.045 0 0 0 394.602 35.467 Q 394.945 35.571 395.361 35.594 A 4.385 4.385 0 0 0 395.6 35.6 A 3.135 3.135 0 0 0 396.666 35.397 Q 397.605 35.058 398.7 34.15 L 399.6 35.35 Q 395.6 39 391.6 39 A 7.582 7.582 0 0 1 389.334 38.686 Q 386.948 37.94 386.016 35.422 A 8.133 8.133 0 0 1 385.75 34.55 A 9.567 9.567 0 0 1 383.51 37.218 Q 381.296 39 378.1 39 A 14.137 14.137 0 0 1 374.547 38.58 A 9.564 9.564 0 0 1 369.35 35.275 Q 366.35 31.55 366.35 25.775 A 16.998 16.998 0 0 1 366.882 21.417 A 12.851 12.851 0 0 1 369.575 16.25 A 10.529 10.529 0 0 1 376.023 12.706 A 15.449 15.449 0 0 1 378.6 12.5 A 8.86 8.86 0 0 1 381.735 13.031 Q 383.978 13.873 385.45 16.05 L 385.45 13.25 Z M 122.3 16 L 118.2 16 L 118.2 13.95 L 122.3 13.95 L 122.3 6.75 L 129.8 6.75 L 129.8 13.95 L 135.45 13.95 L 135.45 16 L 129.8 16 L 129.8 32.7 A 4.528 4.528 0 0 0 129.876 33.556 Q 130.022 34.315 130.45 34.825 A 2.045 2.045 0 0 0 131.452 35.467 Q 131.795 35.571 132.211 35.594 A 4.385 4.385 0 0 0 132.45 35.6 A 3.135 3.135 0 0 0 133.516 35.397 Q 134.455 35.058 135.55 34.15 L 136.45 35.35 Q 132.45 39 128.45 39 A 7.313 7.313 0 0 1 125.832 38.569 Q 122.3 37.22 122.3 31.65 L 122.3 16 Z M 93.15 18.15 Q 91.75 20.95 91.75 25.75 A 26.708 26.708 0 0 0 91.901 28.685 Q 92.06 30.12 92.387 31.316 A 11.084 11.084 0 0 0 93.15 33.35 A 5.901 5.901 0 0 0 94.169 34.827 Q 95.448 36.15 97.425 36.15 A 4.535 4.535 0 0 0 101.079 34.443 A 6.781 6.781 0 0 0 101.825 33.325 A 11.247 11.247 0 0 0 102.812 30.713 Q 103.132 29.441 103.261 27.93 A 25.518 25.518 0 0 0 103.35 25.75 A 24.064 24.064 0 0 0 103.178 22.776 Q 102.992 21.286 102.605 20.05 A 10.615 10.615 0 0 0 101.825 18.175 A 6.338 6.338 0 0 0 100.74 16.685 A 4.508 4.508 0 0 0 97.425 15.35 Q 94.55 15.35 93.15 18.15 Z M 184.55 18.15 Q 183.15 20.95 183.15 25.75 A 26.708 26.708 0 0 0 183.301 28.685 Q 183.46 30.12 183.787 31.316 A 11.084 11.084 0 0 0 184.55 33.35 A 5.901 5.901 0 0 0 185.569 34.827 Q 186.848 36.15 188.825 36.15 A 4.535 4.535 0 0 0 192.479 34.443 A 6.781 6.781 0 0 0 193.225 33.325 A 11.247 11.247 0 0 0 194.212 30.713 Q 194.532 29.441 194.661 27.93 A 25.518 25.518 0 0 0 194.75 25.75 A 24.064 24.064 0 0 0 194.578 22.776 Q 194.392 21.286 194.005 20.05 A 10.615 10.615 0 0 0 193.225 18.175 A 6.338 6.338 0 0 0 192.14 16.685 A 4.508 4.508 0 0 0 188.825 15.35 Q 185.95 15.35 184.55 18.15 Z M 269.3 18.15 Q 267.9 20.95 267.9 25.75 A 26.708 26.708 0 0 0 268.051 28.685 Q 268.21 30.12 268.537 31.316 A 11.084 11.084 0 0 0 269.3 33.35 A 5.901 5.901 0 0 0 270.319 34.827 Q 271.598 36.15 273.575 36.15 A 4.535 4.535 0 0 0 277.229 34.443 A 6.781 6.781 0 0 0 277.975 33.325 A 11.247 11.247 0 0 0 278.962 30.713 Q 279.282 29.441 279.411 27.93 A 25.518 25.518 0 0 0 279.5 25.75 A 24.064 24.064 0 0 0 279.328 22.776 Q 279.142 21.286 278.755 20.05 A 10.615 10.615 0 0 0 277.975 18.175 A 6.338 6.338 0 0 0 276.89 16.685 A 4.508 4.508 0 0 0 273.575 15.35 Q 270.7 15.35 269.3 18.15 Z M 375.5 18.15 Q 374.1 20.95 374.1 25.75 A 26.708 26.708 0 0 0 374.251 28.685 Q 374.41 30.12 374.737 31.316 A 11.084 11.084 0 0 0 375.5 33.35 A 5.901 5.901 0 0 0 376.519 34.827 Q 377.798 36.15 379.775 36.15 A 4.535 4.535 0 0 0 383.429 34.443 A 6.781 6.781 0 0 0 384.175 33.325 A 11.247 11.247 0 0 0 385.162 30.713 Q 385.482 29.441 385.611 27.93 A 25.518 25.518 0 0 0 385.7 25.75 A 24.064 24.064 0 0 0 385.528 22.776 Q 385.342 21.286 384.955 20.05 A 10.615 10.615 0 0 0 384.175 18.175 A 6.338 6.338 0 0 0 383.09 16.685 A 4.508 4.508 0 0 0 379.775 15.35 Q 376.9 15.35 375.5 18.15 Z M 68.35 4.802 A 3.848 3.848 0 0 0 69.525 7.575 A 4.701 4.701 0 0 0 69.562 7.612 A 3.846 3.846 0 0 0 72.35 8.75 A 4.604 4.604 0 0 0 72.401 8.75 A 3.848 3.848 0 0 0 75.175 7.575 A 4.701 4.701 0 0 0 75.211 7.538 A 3.846 3.846 0 0 0 76.35 4.75 A 4.604 4.604 0 0 0 76.35 4.699 A 3.848 3.848 0 0 0 75.175 1.925 A 4.701 4.701 0 0 0 75.138 1.889 A 3.846 3.846 0 0 0 72.35 0.75 A 4.604 4.604 0 0 0 72.299 0.75 A 3.848 3.848 0 0 0 69.525 1.925 A 4.701 4.701 0 0 0 69.489 1.962 A 3.846 3.846 0 0 0 68.35 4.75 A 4.604 4.604 0 0 0 68.35 4.802 Z" vector-effect="non-scaling-stroke"/></g></svg>